HIERARCHY
ROOT Hips
{
	OFFSET	0.00	0.00	0.00
	CHANNELS 6 Xposition Yposition Zposition Zrotation Xrotation Yrotation
	JOINT LeftUpLeg
	{
		OFFSET	 0.126116	-0.014019	-0.065224
		CHANNELS 3 Zrotation Xrotation Yrotation
		JOINT LeftLeg
		{
			OFFSET	 0.000000	 0.000000	 0.569914
			CHANNELS 3 Zrotation Xrotation Yrotation
			JOINT LeftFoot
			{
				OFFSET	 0.000000	 0.000000	 0.544423
				CHANNELS 3 Zrotation Xrotation Yrotation
				JOINT LeftToeBase
				{
					OFFSET	 0.000000	 0.000000	 0.207117
					CHANNELS 3 Zrotation Xrotation Yrotation
					End Site
					{
						OFFSET	 0.000000	 0.000000	 0.207117
					}
				}
			}
		}
	}
	JOINT RightUpLeg
	{
		OFFSET	-0.124023	-0.008373	-0.065224
		CHANNELS 3 Zrotation Xrotation Yrotation
		JOINT RightLeg
		{
			OFFSET	 0.000000	 0.000000	 0.570047
			CHANNELS 3 Zrotation Xrotation Yrotation
			JOINT RightFoot
			{
				OFFSET	 0.000000	 0.000000	 0.544354
				CHANNELS 3 Zrotation Xrotation Yrotation
				JOINT RightToeBase
				{
					OFFSET	 0.000000	 0.000000	 0.207540
					CHANNELS 3 Zrotation Xrotation Yrotation
					End Site
					{
						OFFSET	 0.000000	 0.000000	 0.207540
					}
				}
			}
		}
	}
	JOINT Spine
	{
		OFFSET	 0.000184	-0.007763	 0.117403
		CHANNELS 3 Zrotation Xrotation Yrotation
		JOINT Spine1
		{
			OFFSET	 0.000000	 0.000000	 0.137269
			CHANNELS 3 Zrotation Xrotation Yrotation
			JOINT Spine2
			{
				OFFSET	 0.000000	 0.000000	 0.156879
				CHANNELS 3 Zrotation Xrotation Yrotation
				JOINT LeftShoulder
				{
					OFFSET	 0.080501	-0.002496	 0.160144
					CHANNELS 3 Zrotation Xrotation Yrotation
					JOINT LeftArm
					{
						OFFSET	 0.000000	 0.000000	 0.164363
						CHANNELS 3 Zrotation Xrotation Yrotation
						JOINT LeftForeArm
						{
							OFFSET	 0.000000	 0.000000	 0.364576
							CHANNELS 3 Zrotation Xrotation Yrotation
							JOINT LeftHand
							{
								OFFSET	 0.000000	 0.000000	 0.360812
								CHANNELS 3 Zrotation Xrotation Yrotation
								JOINT LeftHandIndex1
								{
									OFFSET	 0.000000	 0.000000	 0.086006
									CHANNELS 3 Zrotation Xrotation Yrotation
									JOINT LeftHandIndex2
									{
										OFFSET	 0.000000	 0.000000	 0.047236
										CHANNELS 3 Zrotation Xrotation Yrotation
										JOINT LeftHandIndex3
										{
											OFFSET	-0.004284	-0.000551	 0.038166
											CHANNELS 3 Zrotation Xrotation Yrotation
											End Site
											{
												OFFSET	-0.004284	-0.000551	 0.038166
											}
										}
									}
								}
							}
						}
					}
				}
				JOINT Neck
				{
					OFFSET	 0.000000	 0.000000	 0.176489
					CHANNELS 3 Zrotation Xrotation Yrotation
					JOINT Head
					{
						OFFSET	 0.000000	-0.001747	 0.077940
						CHANNELS 3 Zrotation Xrotation Yrotation
						End Site
						{
							OFFSET	 0.000000	-0.001747	 0.077940
						}
					}
				}
				JOINT RightShoulder
				{
					OFFSET	-0.080363	 0.000306	 0.159706
					CHANNELS 3 Zrotation Xrotation Yrotation
					JOINT RightArm
					{
						OFFSET	 0.000000	 0.000000	 0.164196
						CHANNELS 3 Zrotation Xrotation Yrotation
						JOINT RightForeArm
						{
							OFFSET	 0.000000	 0.000000	 0.365611
							CHANNELS 3 Zrotation Xrotation Yrotation
							JOINT RightHand
							{
								OFFSET	 0.000000	 0.000000	 0.360648
								CHANNELS 3 Zrotation Xrotation Yrotation
								JOINT RightHandIndex1
								{
									OFFSET	 0.000000	 0.000000	 0.069977
									CHANNELS 3 Zrotation Xrotation Yrotation
									JOINT RightHandIndex2
									{
										OFFSET	 0.000000	 0.000000	 0.052305
										CHANNELS 3 Zrotation Xrotation Yrotation
										JOINT RightHandIndex3
										{
											OFFSET	 0.009002	-0.000782	 0.042196
											CHANNELS 3 Zrotation Xrotation Yrotation
											End Site
											{
												OFFSET	 0.009002	-0.000782	 0.042196
											}
										}
									}
								}
							}
						}
					}
				}
			}
		}
	}
}
MOTION
Frames:    5
Frame Time: 0.03333334
-0.000088	 0.033575	 1.225875	-0.003252	 0.007945	 0.073708	-6.344469	-12.854680	 179.387300	 0.820974	-34.947320	-2.304081	-21.832660	 82.627620	 15.982200	-2.385833	 28.452760	 0.000004	 6.232023	-13.671250	-179.432400	-0.809331	-35.159290	 2.279581	 20.404330	 82.138780	-14.724640	 2.384658	 28.388730	 0.000004	-2.109827	 2.674754	 0.186629	-0.747484	 3.797753	-0.343824	 2.292780	-4.826897	 0.530734	-91.776160	 78.527470	 180.000000	 62.025910	 43.079270	-44.760020	-7.853604	 3.791687	-9.517611	-28.527050	 3.029716	-4.254690	-2.635965	 4.993658	 6.788941	-5.165319	 0.784187	 3.516649	-5.225038	 0.466231	 0.424329	-0.000002	-3.783157	-0.089647	 2.225105	 4.938798	-0.095985	 89.782100	 78.203900	 180.000000	 10.161910	 13.209080	 82.848660	-33.682860	-4.886863	 14.681280	 3.800271	 2.499939	-6.124797	 6.112037	 4.509576	-0.364401	 4.968462	 1.518543	-9.347576	 5.168945	 0.703820	 2.021906
-0.000141	 0.033906	 1.226070	-0.002690	 0.008667	 0.060472	-6.342332	-12.825150	 179.395900	 0.824639	-34.872550	-2.297678	-21.705900	 82.587860	 15.855060	-2.385833	 28.452760	 0.000004	 6.235202	-13.666340	-179.416200	-0.811564	-35.113360	 2.275697	 20.296630	 82.099770	-14.616690	 2.384658	 28.388730	 0.000004	-1.766932	 2.672383	 0.162134	-0.570653	 3.803495	-0.262857	 1.757028	-4.844650	 0.407098	-91.776120	 78.527470	 179.999900	 62.095490	 43.104950	-44.924110	-7.866107	 3.716101	-9.325695	-28.526050	 3.029872	-4.254521	-2.635965	 4.993658	 6.788941	-5.165319	 0.784187	 3.516649	-5.225038	 0.466231	 0.424329	-0.000002	-3.783157	-0.089647	 1.706090	 4.957191	-0.073870	 89.782150	 78.203870	 180.000000	 10.186540	 13.281690	 82.862980	-33.734740	-4.899047	 14.672700	 3.804841	 2.458448	-6.146990	 6.112037	 4.509576	-0.364401	 4.968462	 1.518543	-9.347576	 5.168945	 0.703820	 2.021906
-0.000210	 0.034282	 1.226304	-0.001699	 0.010512	 0.045994	-6.340549	-12.790610	 179.404300	 0.828991	-34.783350	-2.290055	-21.559270	 82.540330	 15.708110	-2.385833	 28.452760	 0.000004	 6.238364	-13.660780	-179.398000	-0.814197	-35.059030	 2.271113	 20.173290	 82.054380	-14.493100	 2.384658	 28.388730	 0.000004	-1.367497	 2.670743	 0.133159	-0.364479	 3.805361	-0.168804	 1.131851	-4.857622	 0.262620	-91.776200	 78.527430	-180.000000	 62.186700	 43.133800	-45.143170	-7.882370	 3.616232	-9.072192	-28.526210	 3.029804	-4.254520	-2.635965	 4.993658	 6.788941	-5.165319	 0.784187	 3.516649	-5.225038	 0.466231	 0.424329	-0.000002	-3.783157	-0.089647	 1.100759	 4.972505	-0.047811	 89.782110	 78.203870	 180.000000	 10.218970	 13.372170	 82.878360	-33.796870	-4.915121	 14.667050	 3.814643	 2.404384	-6.174020	 6.112037	 4.509576	-0.364401	 4.968462	 1.518543	-9.347576	 5.168945	 0.703820	 2.021906
-0.000268	 0.034614	 1.226502	-0.000967	 0.011645	 0.031812	-6.338439	-12.760510	 179.413600	 0.832739	-34.706210	-2.283480	-21.432450	 82.499280	 15.580930	-2.385833	 28.452760	 0.000004	 6.241586	-13.656100	-179.380900	-0.816436	-35.012730	 2.267211	 20.066690	 82.015110	-14.386220	 2.384658	 28.388730	 0.000004	-1.006713	 2.670234	 0.107563	-0.178001	 3.805763	-0.082883	 0.566472	-4.863775	 0.131381	-91.776200	 78.527430	-180.000000	 62.275420	 43.156260	-45.347850	-7.896271	 3.528482	-8.849670	-28.527730	 3.029625	-4.254812	-2.635965	 4.993658	 6.788941	-5.165319	 0.784187	 3.516649	-5.225038	 0.466231	 0.424329	-0.000002	-3.783157	-0.089647	 0.553579	 4.980708	-0.024090	 89.782180	 78.203890	 179.999900	 10.249340	 13.454550	 82.892650	-33.852760	-4.929385	 14.661520	 3.824733	 2.358755	-6.197655	 6.112037	 4.509576	-0.364401	 4.968462	 1.518543	-9.347576	 5.168945	 0.703820	 2.021906
-0.000331	 0.034995	 1.226716	-0.000091	 0.012116	 0.013346	-6.335487	-12.726760	 179.427000	 0.836882	-34.620640	-2.276197	-21.291750	 82.453580	 15.439750	-2.385833	 28.452760	 0.000004	 6.245675	-13.651480	-179.359500	-0.818829	-34.963250	 2.263042	 19.948870	 81.971700	-14.268010	 2.384658	 28.388730	 0.000004	-0.586888	 2.670857	 0.078732	 0.039192	 3.805030	 0.019407	-0.092498	-4.864396	-0.022652	-91.776160	 78.527450	 180.000000	 62.385830	 43.178680	-45.591370	-7.911078	 3.431741	-8.604644	-28.531090	 3.029153	-4.255340	-2.635965	 4.993658	 6.788941	-5.165319	 0.784187	 3.516649	-5.225038	 0.466231	 0.424329	-0.000002	-3.783157	-0.089647	-0.083995	 4.983504	 0.003641	 89.782150	 78.203850	 180.000000	 10.278920	 13.567650	 82.906760	-33.922800	-4.947118	 14.653910	 3.847714	 2.325184	-6.222184	 6.112037	 4.509576	-0.364401	 4.968462	 1.518543	-9.347576	 5.168945	 0.703820	 2.021906
